<svg width="26" height="24" viewBox="0 0 26 24" fill="none" xmlns="http://www.w3.org/2000/svg">
<path d="M8.99121 19.2068C8.99121 19.3044 8.87891 19.3826 8.7373 19.3826C8.57617 19.3972 8.46387 19.3191 8.46387 19.2068C8.46387 19.1091 8.57617 19.031 8.71777 19.031C8.86426 19.0164 8.99121 19.0945 8.99121 19.2068ZM7.47266 18.9871C7.43848 19.0847 7.53613 19.197 7.68262 19.2263C7.80957 19.2751 7.95605 19.2263 7.98535 19.1287C8.01465 19.031 7.92188 18.9187 7.77539 18.8748C7.64844 18.8406 7.50684 18.8894 7.47266 18.9871ZM9.63086 18.9041C9.48926 18.9382 9.3916 19.031 9.40625 19.1433C9.4209 19.241 9.54785 19.3044 9.69434 19.2703C9.83594 19.2361 9.93359 19.1433 9.91895 19.0457C9.9043 18.9529 9.77246 18.8894 9.63086 18.9041ZM12.8438 0.193115C6.07129 0.193115 0.890625 5.33472 0.890625 12.1072C0.890625 17.5222 4.29883 22.156 9.16699 23.7869C9.79199 23.8992 10.0117 23.5134 10.0117 23.196C10.0117 22.8933 9.99707 21.2234 9.99707 20.198C9.99707 20.198 6.5791 20.9304 5.86133 18.7429C5.86133 18.7429 5.30469 17.322 4.50391 16.9558C4.50391 16.9558 3.38574 16.1892 4.58203 16.2039C4.58203 16.2039 5.79785 16.3015 6.4668 17.4636C7.53613 19.3484 9.32812 18.8064 10.0264 18.4841C10.1387 17.7029 10.4561 17.1609 10.8076 16.8386C8.07812 16.5359 5.32422 16.1404 5.32422 11.4431C5.32422 10.1003 5.69531 9.42651 6.47656 8.56714C6.34961 8.24976 5.93457 6.94116 6.60352 5.25171C7.62402 4.93433 9.97266 6.57007 9.97266 6.57007C10.9492 6.29663 11.999 6.15503 13.0391 6.15503C14.0791 6.15503 15.1289 6.29663 16.1055 6.57007C16.1055 6.57007 18.4541 4.92944 19.4746 5.25171C20.1436 6.94604 19.7285 8.24976 19.6016 8.56714C20.3828 9.4314 20.8613 10.1052 20.8613 11.4431C20.8613 16.155 17.9854 16.531 15.2559 16.8386C15.7051 17.2244 16.0859 17.9568 16.0859 19.1042C16.0859 20.7498 16.0713 22.7859 16.0713 23.1863C16.0713 23.5037 16.2959 23.8894 16.916 23.7771C21.7988 22.156 25.1094 17.5222 25.1094 12.1072C25.1094 5.33472 19.6162 0.193115 12.8438 0.193115ZM5.63672 17.0339C5.57324 17.0828 5.58789 17.1951 5.6709 17.2878C5.74902 17.366 5.86133 17.4001 5.9248 17.3367C5.98828 17.2878 5.97363 17.1755 5.89062 17.0828C5.8125 17.0046 5.7002 16.9705 5.63672 17.0339ZM5.10938 16.6384C5.0752 16.7019 5.12402 16.78 5.22168 16.8289C5.2998 16.8777 5.39746 16.863 5.43164 16.7947C5.46582 16.7312 5.41699 16.6531 5.31934 16.6042C5.22168 16.575 5.14355 16.5896 5.10938 16.6384ZM6.69141 18.3767C6.61328 18.4402 6.64258 18.5867 6.75488 18.6794C6.86719 18.7917 7.00879 18.8064 7.07227 18.7283C7.13574 18.6648 7.10645 18.5183 7.00879 18.4255C6.90137 18.3132 6.75488 18.2986 6.69141 18.3767ZM6.13477 17.6589C6.05664 17.7078 6.05664 17.8347 6.13477 17.947C6.21289 18.0593 6.34473 18.1082 6.4082 18.0593C6.48633 17.9958 6.48633 17.8689 6.4082 17.7566C6.33984 17.6443 6.21289 17.5955 6.13477 17.6589Z" fill="white"/>
</svg>
