<svg width="45" height="45" viewBox="0 0 45 45" fill="none" xmlns="http://www.w3.org/2000/svg">
<path d="M0 22.5C0 34.9264 10.0736 45 22.5 45C34.9264 45 45 34.9264 45 22.5C45 10.0736 34.9264 0 22.5 0C10.0736 0 0 10.0736 0 22.5Z" fill="white"/>
<path d="M16.3125 33.75H11.5312V18.7031H16.3125V33.75ZM13.9219 16.5938C12.375 16.5938 11.25 15.4687 11.25 13.9219C11.25 12.375 12.5156 11.25 13.9219 11.25C15.4688 11.25 16.5938 12.375 16.5938 13.9219C16.5938 15.4687 15.4688 16.5938 13.9219 16.5938ZM33.75 33.75H28.9688V25.5938C28.9688 23.2031 27.9844 22.5 26.5781 22.5C25.1719 22.5 23.7656 23.625 23.7656 25.7344V33.75H18.9844V18.7031H23.4844V20.8125C23.9062 19.8281 25.5937 18.2812 27.9844 18.2812C30.6562 18.2812 33.4688 19.8281 33.4688 24.4687V33.75H33.75Z" fill="#1C358C"/>
</svg>
